HIERARCHY
ROOT Hips
{
	OFFSET -3.958830 18.904000 13.208200
	CHANNELS 6 Xposition Yposition Zposition Zrotation Yrotation Xrotation 
	JOINT LHipJoint
	{
		OFFSET 0.000000 0.000000 0.000000
		CHANNELS 3 Zrotation Yrotation Xrotation
		JOINT LeftUpLeg
		{
			OFFSET 1.800000 -1.400000 0.085000
			CHANNELS 3 Zrotation Yrotation Xrotation
			JOINT LeftLeg
			{
				OFFSET 2.215000 -6.000000 0.000000
				CHANNELS 3 Zrotation Yrotation Xrotation
				JOINT LeftFoot
				{
					OFFSET 2.500000 -6.900000 0.000000
					CHANNELS 3 Zrotation Yrotation Xrotation
					JOINT LeftToeBase
					{
						OFFSET 0.200000 -0.500000 1.950000
						CHANNELS 3 Zrotation Yrotation Xrotation
						End Site
						{
							OFFSET 0.000000 0.000000 0.000000
						}
					}
				}
			}
		}
	}
	JOINT RHipJoint
	{
		OFFSET 0.000000 0.000000 0.000000
		CHANNELS 3 Zrotation Yrotation Xrotation
		JOINT RightUpLeg
		{
			OFFSET -1.800000 -1.400000 0.085000
			CHANNELS 3 Zrotation Yrotation Xrotation
			JOINT RightLeg
			{
				OFFSET -2.215000 -6.000000 0.000000
				CHANNELS 3 Zrotation Yrotation Xrotation
				JOINT RightFoot
				{
					OFFSET -2.500000 -6.900000 0.000000
					CHANNELS 3 Zrotation Yrotation Xrotation
					JOINT RightToeBase
					{
						OFFSET -0.200000 -0.500000 1.950000
						CHANNELS 3 Zrotation Yrotation Xrotation
						End Site
						{
							OFFSET 0.000000 0.000000 0.000000
						}
					}
				}
			}
		}
	}
	JOINT LowerBack
	{
		OFFSET 0.000000 0.000000 0.000000
		CHANNELS 3 Zrotation Yrotation Xrotation
		JOINT Spine
		{
			OFFSET -0.087000 1.940000 -0.288900
			CHANNELS 3 Zrotation Yrotation Xrotation
			JOINT Spine1
			{
				OFFSET 0.000000 1.950000 0.060000
				CHANNELS 3 Zrotation Yrotation Xrotation
				JOINT Neck
				{
					OFFSET 0.000000 0.000000 0.000000
					CHANNELS 3 Zrotation Yrotation Xrotation
					JOINT Neck1
					{
						OFFSET 0.000000 1.600000 0.340000
						CHANNELS 3 Zrotation Yrotation Xrotation
						JOINT Head
						{
							OFFSET 0.000000 1.667000 -0.240000
							CHANNELS 3 Zrotation Yrotation Xrotation
							End Site
							{
								OFFSET 0.000000 0.000000 0.000000
							}
						}
					}
				}
				JOINT LeftShoulder
				{
					OFFSET 0.000000 0.000000 0.000000
					CHANNELS 3 Zrotation Yrotation Xrotation
					JOINT LeftArm
					{
						OFFSET 2.700000 1.550000 -0.730000
						CHANNELS 3 Zrotation Yrotation Xrotation
						JOINT LeftForeArm
						{
							OFFSET 5.450000 0.000000 0.000000
							CHANNELS 3 Zrotation Yrotation Xrotation
							JOINT LeftHand
							{
								OFFSET 3.450000 0.000000 0.000000
								CHANNELS 3 Zrotation Yrotation Xrotation
								JOINT LeftHandIndex1
								{
									OFFSET 0.750000 0.000000 0.000000
									CHANNELS 3 Zrotation Yrotation Xrotation
									End Site
									{
										OFFSET 0.000000 0.000000 0.000000
									}
								}
							}
						}
					}
				}
				JOINT RightShoulder
				{
					OFFSET 0.000000 0.000000 0.000000
					CHANNELS 3 Zrotation Yrotation Xrotation
					JOINT RightArm
					{
						OFFSET -2.700000 1.550000 -0.730000
						CHANNELS 3 Zrotation Yrotation Xrotation
						JOINT RightForeArm
						{
							OFFSET -5.450000 0.000000 0.000000
							CHANNELS 3 Zrotation Yrotation Xrotation
							JOINT RightHand
							{
								OFFSET -3.450000 0.000000 0.000000
								CHANNELS 3 Zrotation Yrotation Xrotation
								JOINT RightHandIndex1
								{
									OFFSET -0.750000 0.000000 0.000000
									CHANNELS 3 Zrotation Yrotation Xrotation
									End Site
									{
										OFFSET 0.000000 0.000000 0.000000
									}
								}
							}
						}
					}
				}
			}
		}
	}
}
MOTION
Frames: 8
Frame Time: 0.016667
1.684480 17.174670 -1.019290 -1.271308 19.296647 2.203970 -15.292759 13.582557 3.102441 -0.059596 0.681946 2.033144 -6.194701 5.303907 4.172971 -0.370599 4.732030 3.284604 0.331160 -0.165710 0.304340 18.331370 -9.636833 3.230800 6.346673 3.961093 -35.354493 1.465013 -5.771461 29.216096 -0.061154 -3.402422 3.365820 0.022290 0.348240 0.127930 -3.842072 -3.927030 -7.649572 17.249581 -12.886781 13.857648 -6.706509 -11.073899 2.501352 1.643696 -2.756459 -8.483974 -7.137015 0.631507 27.883461 -3.759900 1.367220 -5.595520 -11.149354 -2.307485 1.138881 -27.357298 -7.382605 -5.806183 30.957744 -60.448578 -17.347462 -3.583081 2.742327 0.537370 0.242890 -0.274340 0.187210 7.719028 -0.261783 5.957098 47.675006 -11.283934 -15.732933 9.825536 47.396876 2.088404 1.630829 -1.737207 -0.369890 0.216570 0.006150 -0.347540 
1.691500 17.156780 -0.981550 -1.222512 18.844626 2.732893 -15.293118 13.554545 3.090151 -0.228416 0.696330 1.859904 -6.238764 5.284340 4.034665 -0.373992 4.744686 3.292245 0.312340 -0.180460 0.267410 18.343575 -9.606278 3.229337 6.934468 4.102972 -34.363113 1.682111 -5.149872 25.967777 0.034040 -2.973095 3.537698 0.025700 0.397710 0.136390 -3.842234 -3.903263 -7.598246 17.403674 -12.812434 13.003778 -6.685694 -11.118754 2.689455 1.467901 -2.925202 -8.472285 -7.221963 0.988464 27.023162 -3.435950 1.327820 -4.716800 -10.444206 -1.966443 1.213822 -27.145168 -7.255067 -5.431560 28.945424 -59.697939 -15.967566 -3.632696 2.794372 0.501920 0.280490 -0.308690 0.196800 7.373270 -0.472161 5.837472 46.561933 -11.115389 -15.141105 11.240636 47.386944 2.594745 1.617876 -1.769338 -0.375670 0.225430 0.025540 -0.331020 
1.707570 17.121890 -0.917570 -0.943014 18.355014 3.640022 -15.298110 13.502355 3.048123 -0.640211 0.735022 1.480391 -6.274102 5.284902 4.218654 -0.390066 4.749890 3.313201 0.313600 -0.159680 0.228030 18.362761 -9.565932 3.209417 7.372905 4.180513 -32.832881 2.507944 -4.441915 21.154941 0.146462 -2.485240 3.739931 0.062020 0.470710 0.141110 -3.839377 -3.850950 -7.484052 17.594696 -12.730834 11.289937 -6.713749 -11.284941 3.303431 1.153078 -3.298075 -8.360596 -7.491533 1.421310 25.337662 -3.248140 1.189880 -3.640960 -9.120746 -1.330800 1.258107 -26.823183 -7.466277 -4.646021 24.519088 -57.869162 -13.042286 -3.702425 2.892896 0.440060 0.338840 -0.359180 0.226180 6.693458 -0.832633 5.577542 44.277135 -10.580258 -13.793897 14.345971 46.918018 3.634659 1.597887 -1.842353 -0.385310 0.248250 0.030470 -0.301480 
1.730720 17.079940 -0.829530 -0.377271 17.455869 4.735088 -15.321437 13.435393 2.997672 -1.518789 0.866710 1.232344 -5.926729 5.235040 4.512327 -0.401178 4.755554 3.333522 0.316210 -0.138670 0.181870 18.375576 -9.504910 3.183814 7.697490 4.218886 -30.977045 3.328031 -3.707564 16.048041 0.244662 -2.144947 3.886511 0.104790 0.560710 0.168000 -3.786821 -3.810836 -7.339676 17.159257 -12.398411 8.866969 -6.307790 -11.358785 4.528559 0.731351 -3.696049 -8.268326 -7.797470 1.966380 23.526025 -3.262610 1.064450 -2.011100 -8.479577 -1.185827 1.358599 -26.024720 -7.345866 -3.967936 19.878185 -55.361173 -10.073210 -3.802996 3.012074 0.347720 0.421510 -0.424250 0.257340 6.942746 -0.590274 5.442453 40.392228 -10.368054 -12.198244 18.108339 46.868932 4.881442 1.566830 -1.950068 -0.382580 0.256780 0.042550 -0.264280 
1.748280 17.041670 -0.732220 0.217083 16.070464 5.336720 -15.335228 13.357895 2.950531 -2.052785 0.948405 1.340432 -6.261223 5.416898 5.394759 -0.402972 4.862320 3.315012 0.306270 -0.131200 0.137990 18.393272 -9.471010 3.162995 8.103957 4.177236 -28.612361 3.647501 -3.054095 11.538468 0.303681 -1.996622 3.968014 0.140530 0.640630 0.176030 -3.749796 -3.718418 -7.227245 16.572001 -12.005508 6.927868 -6.184229 -11.287931 5.703192 0.466811 -3.906660 -8.209887 -7.941568 2.854786 22.532918 -3.085250 1.322720 -0.744650 -8.513151 -1.433538 1.484067 -24.243254 -6.422288 -3.518496 14.766519 -52.919706 -7.132979 -3.892543 3.095961 0.280520 0.490180 -0.483890 0.276110 7.539646 -0.061400 5.375764 36.584220 -9.944272 -10.602372 22.173108 46.579946 6.210438 1.546084 -2.019318 -0.397740 0.277570 0.061310 -0.240380 
1.770190 17.017980 -0.632840 0.590852 13.825024 5.485118 -15.342933 13.309045 2.925144 -2.262416 0.964697 1.521791 -7.083012 5.745550 6.576172 -0.340541 4.971975 3.290625 0.316870 -0.096830 0.124750 18.404444 -9.444350 3.168993 8.571450 4.065639 -26.047763 3.911326 -2.623709 7.885047 0.301926 -1.985748 4.009090 0.156790 0.665640 0.176860 -3.708453 -3.669146 -7.190288 16.074026 -11.383273 5.799219 -5.726239 -10.843913 6.704096 0.422716 -4.347306 -8.546465 -8.666225 3.792208 22.416988 -3.260070 2.034420 0.106950 -8.980056 -2.267937 1.881774 -23.074793 -5.280531 -3.391395 10.419113 -49.970258 -4.793098 -3.914436 3.150321 0.237000 0.517180 -0.494380 0.304050 8.126313 1.378566 5.701774 32.594520 -9.918560 -9.310211 26.179995 46.373155 7.534990 1.562380 -2.068001 -0.384140 0.277770 0.036770 -0.215790 
1.793310 17.005790 -0.531260 0.787685 11.231186 5.063565 -15.318588 13.263688 2.901534 -2.158654 0.867146 1.771832 -8.193775 6.249363 8.392922 -0.279527 5.172073 3.216290 0.298070 -0.121300 0.103840 18.435785 -9.472788 3.168449 8.831446 3.768237 -23.230321 4.255652 -2.481259 5.364221 0.269975 -2.097465 3.983975 0.134450 0.671580 0.183580 -3.749320 -3.560699 -7.173051 16.344599 -10.633085 5.240527 -6.011515 -10.089707 7.485026 0.486582 -5.074581 -9.028046 -10.046646 4.660984 22.940411 -3.074940 2.405030 0.791820 -10.130692 -3.535856 2.149288 -20.946938 -4.592530 -3.003990 4.658594 -45.994435 -2.094176 -3.932426 3.193085 0.234920 0.516020 -0.497830 0.301770 9.117757 3.349118 6.464913 29.323932 -11.037636 -8.732263 30.079155 46.871024 8.915389 1.585413 -2.086490 -0.377390 0.263520 0.048370 -0.209040 
1.814320 17.003380 -0.418020 0.719681 8.711863 4.441896 -15.282103 13.214919 2.857589 -1.628648 0.642009 1.950381 -9.389873 6.886168 10.542679 -0.195408 5.431153 3.137300 0.246650 -0.169840 0.061690 18.477937 -9.517866 3.170151 9.105520 3.397420 -20.422542 4.585837 -2.468476 3.636327 0.244217 -2.275195 3.953467 0.100740 0.698640 0.162940 -3.828146 -3.418253 -7.138171 17.158340 -10.039424 4.510868 -6.565170 -9.476303 8.176354 0.651813 -5.771328 -9.506295 -11.455446 5.474807 23.653865 -3.012600 2.840960 2.282700 -11.322166 -4.797370 2.492115 -19.688492 -4.395901 -2.431170 -0.342353 -40.785344 -0.095250 -3.961911 3.184074 0.214550 0.526970 -0.521800 0.299050 9.935384 5.199767 7.170137 26.491480 -11.804515 -8.108060 33.763857 47.011520 10.184102 1.625628 -2.087048 -0.388950 0.268100 0.063620 -0.195850 
